<mxfile host="app.diagrams.net" modified="2024-02-06T10:35:44.018Z" agent="Mozilla/5.0 (Macintosh; Intel Mac OS X 10_15_7) AppleWebKit/537.36 (KHTML, like Gecko) Chrome/121.0.0.0 Safari/537.36" etag="p34N8ndIQ6jl78tqcFXN" version="23.1.1" type="github">
  <diagram name="Страница — 1" id="vTmRx69KWSFryIIJTWgX">
    <mxGraphModel dx="1405" dy="713" grid="1" gridSize="10" guides="1" tooltips="1" connect="1" arrows="1" fold="1" page="1" pageScale="1" pageWidth="827" pageHeight="1169" math="0" shadow="0">
      <root>
        <mxCell id="0" />
        <mxCell id="1" parent="0" />
        <mxCell id="7x0zJqu1SEORnUCvoNw2-1" value="Страва" style="rounded=0;whiteSpace=wrap;html=1;" vertex="1" parent="1">
          <mxGeometry x="110" y="240" width="120" height="80" as="geometry" />
        </mxCell>
        <mxCell id="7x0zJqu1SEORnUCvoNw2-2" value="Продукти" style="rounded=0;whiteSpace=wrap;html=1;" vertex="1" parent="1">
          <mxGeometry x="550" y="240" width="120" height="80" as="geometry" />
        </mxCell>
        <mxCell id="7x0zJqu1SEORnUCvoNw2-3" value="Склад страви" style="rhombus;whiteSpace=wrap;html=1;" vertex="1" parent="1">
          <mxGeometry x="320" y="240" width="120" height="80" as="geometry" />
        </mxCell>
        <mxCell id="7x0zJqu1SEORnUCvoNw2-9" value="" style="endArrow=none;html=1;rounded=0;exitX=1;exitY=0.5;exitDx=0;exitDy=0;entryX=0;entryY=0.5;entryDx=0;entryDy=0;" edge="1" parent="1" source="7x0zJqu1SEORnUCvoNw2-1" target="7x0zJqu1SEORnUCvoNw2-3">
          <mxGeometry width="50" height="50" relative="1" as="geometry">
            <mxPoint x="310" y="310" as="sourcePoint" />
            <mxPoint x="360" y="260" as="targetPoint" />
          </mxGeometry>
        </mxCell>
        <mxCell id="7x0zJqu1SEORnUCvoNw2-11" value="N" style="edgeLabel;html=1;align=center;verticalAlign=middle;resizable=0;points=[];" vertex="1" connectable="0" parent="7x0zJqu1SEORnUCvoNw2-9">
          <mxGeometry x="0.0045" relative="1" as="geometry">
            <mxPoint as="offset" />
          </mxGeometry>
        </mxCell>
        <mxCell id="7x0zJqu1SEORnUCvoNw2-10" value="" style="endArrow=none;html=1;rounded=0;entryX=0;entryY=0.5;entryDx=0;entryDy=0;exitX=1;exitY=0.5;exitDx=0;exitDy=0;" edge="1" parent="1" source="7x0zJqu1SEORnUCvoNw2-3" target="7x0zJqu1SEORnUCvoNw2-2">
          <mxGeometry width="50" height="50" relative="1" as="geometry">
            <mxPoint x="370" y="310" as="sourcePoint" />
            <mxPoint x="420" y="260" as="targetPoint" />
          </mxGeometry>
        </mxCell>
        <mxCell id="7x0zJqu1SEORnUCvoNw2-12" value="N" style="edgeLabel;html=1;align=center;verticalAlign=middle;resizable=0;points=[];" vertex="1" connectable="0" parent="7x0zJqu1SEORnUCvoNw2-10">
          <mxGeometry x="0.0045" relative="1" as="geometry">
            <mxPoint as="offset" />
          </mxGeometry>
        </mxCell>
        <mxCell id="7x0zJqu1SEORnUCvoNw2-13" value="Вид" style="ellipse;whiteSpace=wrap;html=1;" vertex="1" parent="1">
          <mxGeometry x="50" y="130" width="70" height="70" as="geometry" />
        </mxCell>
        <mxCell id="7x0zJqu1SEORnUCvoNw2-14" value="ID" style="ellipse;whiteSpace=wrap;html=1;" vertex="1" parent="1">
          <mxGeometry x="185" y="60" width="70" height="70" as="geometry" />
        </mxCell>
        <mxCell id="7x0zJqu1SEORnUCvoNw2-15" value="Термін зберігання" style="ellipse;whiteSpace=wrap;html=1;" vertex="1" parent="1">
          <mxGeometry x="130" y="120" width="70" height="70" as="geometry" />
        </mxCell>
        <mxCell id="7x0zJqu1SEORnUCvoNw2-16" value="Назва" style="ellipse;whiteSpace=wrap;html=1;" vertex="1" parent="1">
          <mxGeometry x="250" y="120" width="70" height="70" as="geometry" />
        </mxCell>
        <mxCell id="7x0zJqu1SEORnUCvoNw2-17" value="" style="endArrow=none;html=1;rounded=0;exitX=0.5;exitY=1;exitDx=0;exitDy=0;entryX=0.5;entryY=0;entryDx=0;entryDy=0;" edge="1" parent="1" source="7x0zJqu1SEORnUCvoNw2-14" target="7x0zJqu1SEORnUCvoNw2-1">
          <mxGeometry width="50" height="50" relative="1" as="geometry">
            <mxPoint x="150" y="240" as="sourcePoint" />
            <mxPoint x="200" y="190" as="targetPoint" />
          </mxGeometry>
        </mxCell>
        <mxCell id="7x0zJqu1SEORnUCvoNw2-18" value="" style="endArrow=none;html=1;rounded=0;entryX=0.571;entryY=1;entryDx=0;entryDy=0;entryPerimeter=0;exitX=0.5;exitY=0;exitDx=0;exitDy=0;" edge="1" parent="1" source="7x0zJqu1SEORnUCvoNw2-1" target="7x0zJqu1SEORnUCvoNw2-13">
          <mxGeometry width="50" height="50" relative="1" as="geometry">
            <mxPoint x="150" y="240" as="sourcePoint" />
            <mxPoint x="200" y="190" as="targetPoint" />
          </mxGeometry>
        </mxCell>
        <mxCell id="7x0zJqu1SEORnUCvoNw2-19" value="" style="endArrow=none;html=1;rounded=0;entryX=0.5;entryY=1;entryDx=0;entryDy=0;exitX=0.5;exitY=0;exitDx=0;exitDy=0;" edge="1" parent="1" source="7x0zJqu1SEORnUCvoNw2-1" target="7x0zJqu1SEORnUCvoNw2-15">
          <mxGeometry width="50" height="50" relative="1" as="geometry">
            <mxPoint x="150" y="240" as="sourcePoint" />
            <mxPoint x="200" y="190" as="targetPoint" />
          </mxGeometry>
        </mxCell>
        <mxCell id="7x0zJqu1SEORnUCvoNw2-20" value="" style="endArrow=none;html=1;rounded=0;entryX=0.5;entryY=1;entryDx=0;entryDy=0;exitX=0.5;exitY=0;exitDx=0;exitDy=0;" edge="1" parent="1" source="7x0zJqu1SEORnUCvoNw2-1" target="7x0zJqu1SEORnUCvoNw2-16">
          <mxGeometry width="50" height="50" relative="1" as="geometry">
            <mxPoint x="150" y="240" as="sourcePoint" />
            <mxPoint x="200" y="190" as="targetPoint" />
          </mxGeometry>
        </mxCell>
        <mxCell id="7x0zJqu1SEORnUCvoNw2-21" value="ID" style="ellipse;whiteSpace=wrap;html=1;" vertex="1" parent="1">
          <mxGeometry x="380" y="130" width="70" height="70" as="geometry" />
        </mxCell>
        <mxCell id="7x0zJqu1SEORnUCvoNw2-22" value="Назва" style="ellipse;whiteSpace=wrap;html=1;" vertex="1" parent="1">
          <mxGeometry x="450" y="100" width="70" height="70" as="geometry" />
        </mxCell>
        <mxCell id="7x0zJqu1SEORnUCvoNw2-23" value="" style="endArrow=none;html=1;rounded=0;entryX=0.5;entryY=1;entryDx=0;entryDy=0;exitX=0.5;exitY=0;exitDx=0;exitDy=0;" edge="1" parent="1" source="7x0zJqu1SEORnUCvoNw2-2" target="7x0zJqu1SEORnUCvoNw2-21">
          <mxGeometry width="50" height="50" relative="1" as="geometry">
            <mxPoint x="540" y="260" as="sourcePoint" />
            <mxPoint x="590" y="210" as="targetPoint" />
          </mxGeometry>
        </mxCell>
        <mxCell id="7x0zJqu1SEORnUCvoNw2-24" value="" style="endArrow=none;html=1;rounded=0;entryX=0.544;entryY=0.997;entryDx=0;entryDy=0;entryPerimeter=0;exitX=0.5;exitY=0;exitDx=0;exitDy=0;" edge="1" parent="1" source="7x0zJqu1SEORnUCvoNw2-2" target="7x0zJqu1SEORnUCvoNw2-22">
          <mxGeometry width="50" height="50" relative="1" as="geometry">
            <mxPoint x="540" y="260" as="sourcePoint" />
            <mxPoint x="590" y="210" as="targetPoint" />
          </mxGeometry>
        </mxCell>
        <mxCell id="7x0zJqu1SEORnUCvoNw2-26" value="Маса" style="ellipse;whiteSpace=wrap;html=1;" vertex="1" parent="1">
          <mxGeometry x="590" y="90" width="70" height="70" as="geometry" />
        </mxCell>
        <mxCell id="7x0zJqu1SEORnUCvoNw2-27" value="Вартість" style="ellipse;whiteSpace=wrap;html=1;" vertex="1" parent="1">
          <mxGeometry x="650" y="160" width="70" height="70" as="geometry" />
        </mxCell>
        <mxCell id="7x0zJqu1SEORnUCvoNw2-28" value="" style="endArrow=none;html=1;rounded=0;entryX=0.5;entryY=1;entryDx=0;entryDy=0;exitX=0.5;exitY=0;exitDx=0;exitDy=0;" edge="1" parent="1" source="7x0zJqu1SEORnUCvoNw2-2" target="7x0zJqu1SEORnUCvoNw2-26">
          <mxGeometry width="50" height="50" relative="1" as="geometry">
            <mxPoint x="500" y="260" as="sourcePoint" />
            <mxPoint x="550" y="210" as="targetPoint" />
          </mxGeometry>
        </mxCell>
        <mxCell id="7x0zJqu1SEORnUCvoNw2-29" value="" style="endArrow=none;html=1;rounded=0;entryX=0;entryY=0.5;entryDx=0;entryDy=0;exitX=0.526;exitY=-0.003;exitDx=0;exitDy=0;exitPerimeter=0;" edge="1" parent="1" source="7x0zJqu1SEORnUCvoNw2-2" target="7x0zJqu1SEORnUCvoNw2-27">
          <mxGeometry width="50" height="50" relative="1" as="geometry">
            <mxPoint x="500" y="260" as="sourcePoint" />
            <mxPoint x="550" y="210" as="targetPoint" />
          </mxGeometry>
        </mxCell>
        <mxCell id="7x0zJqu1SEORnUCvoNw2-30" value="Калорійність" style="ellipse;whiteSpace=wrap;html=1;" vertex="1" parent="1">
          <mxGeometry x="510" y="50" width="80" height="70" as="geometry" />
        </mxCell>
        <mxCell id="7x0zJqu1SEORnUCvoNw2-31" value="" style="endArrow=none;html=1;rounded=0;entryX=0.5;entryY=1;entryDx=0;entryDy=0;exitX=0.5;exitY=0;exitDx=0;exitDy=0;" edge="1" parent="1" source="7x0zJqu1SEORnUCvoNw2-2" target="7x0zJqu1SEORnUCvoNw2-30">
          <mxGeometry width="50" height="50" relative="1" as="geometry">
            <mxPoint x="540" y="240" as="sourcePoint" />
            <mxPoint x="550" y="210" as="targetPoint" />
          </mxGeometry>
        </mxCell>
        <mxCell id="7x0zJqu1SEORnUCvoNw2-32" value="Маса" style="ellipse;whiteSpace=wrap;html=1;" vertex="1" parent="1">
          <mxGeometry x="280" y="350" width="70" height="70" as="geometry" />
        </mxCell>
        <mxCell id="7x0zJqu1SEORnUCvoNw2-33" value="Код продукту" style="ellipse;whiteSpace=wrap;html=1;" vertex="1" parent="1">
          <mxGeometry x="410" y="350" width="70" height="70" as="geometry" />
        </mxCell>
        <mxCell id="7x0zJqu1SEORnUCvoNw2-34" value="" style="endArrow=none;html=1;rounded=0;exitX=0.5;exitY=1;exitDx=0;exitDy=0;entryX=0.5;entryY=0;entryDx=0;entryDy=0;" edge="1" parent="1" source="7x0zJqu1SEORnUCvoNw2-3" target="7x0zJqu1SEORnUCvoNw2-33">
          <mxGeometry width="50" height="50" relative="1" as="geometry">
            <mxPoint x="400" y="330" as="sourcePoint" />
            <mxPoint x="450" y="280" as="targetPoint" />
          </mxGeometry>
        </mxCell>
        <mxCell id="7x0zJqu1SEORnUCvoNw2-36" value="" style="endArrow=none;html=1;rounded=0;entryX=0.5;entryY=0;entryDx=0;entryDy=0;exitX=0.5;exitY=1;exitDx=0;exitDy=0;" edge="1" parent="1" source="7x0zJqu1SEORnUCvoNw2-3" target="7x0zJqu1SEORnUCvoNw2-32">
          <mxGeometry width="50" height="50" relative="1" as="geometry">
            <mxPoint x="380" y="320" as="sourcePoint" />
            <mxPoint x="450" y="280" as="targetPoint" />
          </mxGeometry>
        </mxCell>
        <mxCell id="7x0zJqu1SEORnUCvoNw2-38" value="ID" style="ellipse;whiteSpace=wrap;html=1;" vertex="1" parent="1">
          <mxGeometry x="345" y="400" width="70" height="70" as="geometry" />
        </mxCell>
        <mxCell id="7x0zJqu1SEORnUCvoNw2-39" value="" style="endArrow=none;html=1;rounded=0;entryX=0.5;entryY=0;entryDx=0;entryDy=0;exitX=0.5;exitY=1;exitDx=0;exitDy=0;" edge="1" parent="1" source="7x0zJqu1SEORnUCvoNw2-3" target="7x0zJqu1SEORnUCvoNw2-38">
          <mxGeometry width="50" height="50" relative="1" as="geometry">
            <mxPoint x="380" y="320" as="sourcePoint" />
            <mxPoint x="450" y="280" as="targetPoint" />
          </mxGeometry>
        </mxCell>
        <mxCell id="7x0zJqu1SEORnUCvoNw2-40" value="Постачальники" style="shape=parallelogram;perimeter=parallelogramPerimeter;whiteSpace=wrap;html=1;fixedSize=1;" vertex="1" parent="1">
          <mxGeometry x="540" y="530" width="130" height="80" as="geometry" />
        </mxCell>
        <mxCell id="7x0zJqu1SEORnUCvoNw2-41" value="Поставка" style="rhombus;whiteSpace=wrap;html=1;" vertex="1" parent="1">
          <mxGeometry x="550" y="380" width="120" height="80" as="geometry" />
        </mxCell>
        <mxCell id="7x0zJqu1SEORnUCvoNw2-42" value="" style="endArrow=none;html=1;rounded=0;entryX=0.547;entryY=-0.001;entryDx=0;entryDy=0;entryPerimeter=0;exitX=0.5;exitY=1;exitDx=0;exitDy=0;" edge="1" parent="1" source="7x0zJqu1SEORnUCvoNw2-41" target="7x0zJqu1SEORnUCvoNw2-40">
          <mxGeometry width="50" height="50" relative="1" as="geometry">
            <mxPoint x="460" y="390" as="sourcePoint" />
            <mxPoint x="510" y="340" as="targetPoint" />
          </mxGeometry>
        </mxCell>
        <mxCell id="7x0zJqu1SEORnUCvoNw2-43" value="" style="endArrow=none;html=1;rounded=0;entryX=0.5;entryY=1;entryDx=0;entryDy=0;exitX=0.5;exitY=0;exitDx=0;exitDy=0;" edge="1" parent="1" source="7x0zJqu1SEORnUCvoNw2-41" target="7x0zJqu1SEORnUCvoNw2-2">
          <mxGeometry width="50" height="50" relative="1" as="geometry">
            <mxPoint x="460" y="390" as="sourcePoint" />
            <mxPoint x="510" y="340" as="targetPoint" />
          </mxGeometry>
        </mxCell>
        <mxCell id="7x0zJqu1SEORnUCvoNw2-44" value="ID" style="ellipse;whiteSpace=wrap;html=1;" vertex="1" parent="1">
          <mxGeometry x="700" y="460" width="70" height="70" as="geometry" />
        </mxCell>
        <mxCell id="7x0zJqu1SEORnUCvoNw2-45" value="Дата поставки" style="ellipse;whiteSpace=wrap;html=1;" vertex="1" parent="1">
          <mxGeometry x="470" y="440" width="70" height="70" as="geometry" />
        </mxCell>
        <mxCell id="7x0zJqu1SEORnUCvoNw2-46" value="Вага продукту" style="ellipse;whiteSpace=wrap;html=1;" vertex="1" parent="1">
          <mxGeometry x="490" y="330" width="70" height="70" as="geometry" />
        </mxCell>
        <mxCell id="7x0zJqu1SEORnUCvoNw2-47" value="Код продукту" style="ellipse;whiteSpace=wrap;html=1;" vertex="1" parent="1">
          <mxGeometry x="700" y="290" width="70" height="70" as="geometry" />
        </mxCell>
        <mxCell id="7x0zJqu1SEORnUCvoNw2-48" value="Ціна" style="ellipse;whiteSpace=wrap;html=1;" vertex="1" parent="1">
          <mxGeometry x="710" y="370" width="70" height="70" as="geometry" />
        </mxCell>
        <mxCell id="7x0zJqu1SEORnUCvoNw2-49" value="" style="endArrow=none;html=1;rounded=0;entryX=1;entryY=1;entryDx=0;entryDy=0;exitX=0;exitY=0.5;exitDx=0;exitDy=0;" edge="1" parent="1" source="7x0zJqu1SEORnUCvoNw2-41" target="7x0zJqu1SEORnUCvoNw2-46">
          <mxGeometry width="50" height="50" relative="1" as="geometry">
            <mxPoint x="580" y="440" as="sourcePoint" />
            <mxPoint x="630" y="390" as="targetPoint" />
          </mxGeometry>
        </mxCell>
        <mxCell id="7x0zJqu1SEORnUCvoNw2-50" value="" style="endArrow=none;html=1;rounded=0;exitX=0.5;exitY=0;exitDx=0;exitDy=0;entryX=0;entryY=0.5;entryDx=0;entryDy=0;" edge="1" parent="1" source="7x0zJqu1SEORnUCvoNw2-45" target="7x0zJqu1SEORnUCvoNw2-41">
          <mxGeometry width="50" height="50" relative="1" as="geometry">
            <mxPoint x="580" y="440" as="sourcePoint" />
            <mxPoint x="630" y="390" as="targetPoint" />
          </mxGeometry>
        </mxCell>
        <mxCell id="7x0zJqu1SEORnUCvoNw2-51" value="" style="endArrow=none;html=1;rounded=0;entryX=0;entryY=0.5;entryDx=0;entryDy=0;exitX=1;exitY=0.5;exitDx=0;exitDy=0;" edge="1" parent="1" source="7x0zJqu1SEORnUCvoNw2-41" target="7x0zJqu1SEORnUCvoNw2-47">
          <mxGeometry width="50" height="50" relative="1" as="geometry">
            <mxPoint x="580" y="440" as="sourcePoint" />
            <mxPoint x="630" y="390" as="targetPoint" />
          </mxGeometry>
        </mxCell>
        <mxCell id="7x0zJqu1SEORnUCvoNw2-52" value="" style="endArrow=none;html=1;rounded=0;entryX=0;entryY=0.5;entryDx=0;entryDy=0;exitX=1;exitY=0.5;exitDx=0;exitDy=0;" edge="1" parent="1" source="7x0zJqu1SEORnUCvoNw2-41" target="7x0zJqu1SEORnUCvoNw2-48">
          <mxGeometry width="50" height="50" relative="1" as="geometry">
            <mxPoint x="580" y="440" as="sourcePoint" />
            <mxPoint x="630" y="390" as="targetPoint" />
          </mxGeometry>
        </mxCell>
        <mxCell id="7x0zJqu1SEORnUCvoNw2-53" value="" style="endArrow=none;html=1;rounded=0;entryX=0;entryY=0.5;entryDx=0;entryDy=0;exitX=1;exitY=0.5;exitDx=0;exitDy=0;" edge="1" parent="1" source="7x0zJqu1SEORnUCvoNw2-41" target="7x0zJqu1SEORnUCvoNw2-44">
          <mxGeometry width="50" height="50" relative="1" as="geometry">
            <mxPoint x="580" y="440" as="sourcePoint" />
            <mxPoint x="630" y="390" as="targetPoint" />
          </mxGeometry>
        </mxCell>
        <mxCell id="7x0zJqu1SEORnUCvoNw2-55" value="Адреси" style="rounded=0;whiteSpace=wrap;html=1;" vertex="1" parent="1">
          <mxGeometry x="320" y="530" width="120" height="80" as="geometry" />
        </mxCell>
        <mxCell id="7x0zJqu1SEORnUCvoNw2-56" value="" style="endArrow=none;html=1;rounded=0;exitX=1;exitY=0.5;exitDx=0;exitDy=0;entryX=0;entryY=0.5;entryDx=0;entryDy=0;" edge="1" parent="1" source="7x0zJqu1SEORnUCvoNw2-55" target="7x0zJqu1SEORnUCvoNw2-40">
          <mxGeometry width="50" height="50" relative="1" as="geometry">
            <mxPoint x="580" y="520" as="sourcePoint" />
            <mxPoint x="630" y="470" as="targetPoint" />
          </mxGeometry>
        </mxCell>
        <mxCell id="7x0zJqu1SEORnUCvoNw2-57" value="1" style="edgeLabel;html=1;align=center;verticalAlign=middle;resizable=0;points=[];" vertex="1" connectable="0" parent="7x0zJqu1SEORnUCvoNw2-56">
          <mxGeometry x="-0.0013" relative="1" as="geometry">
            <mxPoint as="offset" />
          </mxGeometry>
        </mxCell>
        <mxCell id="7x0zJqu1SEORnUCvoNw2-58" value="1--------1" style="edgeLabel;html=1;align=center;verticalAlign=middle;resizable=0;points=[];" vertex="1" connectable="0" parent="7x0zJqu1SEORnUCvoNw2-56">
          <mxGeometry x="-0.0013" relative="1" as="geometry">
            <mxPoint as="offset" />
          </mxGeometry>
        </mxCell>
        <mxCell id="7x0zJqu1SEORnUCvoNw2-59" value="Адреса" style="ellipse;whiteSpace=wrap;html=1;" vertex="1" parent="1">
          <mxGeometry x="430" y="640" width="90" height="60" as="geometry" />
        </mxCell>
        <mxCell id="7x0zJqu1SEORnUCvoNw2-60" value="Місто" style="ellipse;whiteSpace=wrap;html=1;" vertex="1" parent="1">
          <mxGeometry x="335" y="640" width="90" height="60" as="geometry" />
        </mxCell>
        <mxCell id="7x0zJqu1SEORnUCvoNw2-61" value="Країна" style="ellipse;whiteSpace=wrap;html=1;" vertex="1" parent="1">
          <mxGeometry x="240" y="640" width="90" height="60" as="geometry" />
        </mxCell>
        <mxCell id="7x0zJqu1SEORnUCvoNw2-62" value="" style="endArrow=none;html=1;rounded=0;exitX=0.5;exitY=0;exitDx=0;exitDy=0;entryX=0.5;entryY=1;entryDx=0;entryDy=0;" edge="1" parent="1" source="7x0zJqu1SEORnUCvoNw2-61" target="7x0zJqu1SEORnUCvoNw2-55">
          <mxGeometry width="50" height="50" relative="1" as="geometry">
            <mxPoint x="330" y="660" as="sourcePoint" />
            <mxPoint x="380" y="610" as="targetPoint" />
          </mxGeometry>
        </mxCell>
        <mxCell id="7x0zJqu1SEORnUCvoNw2-63" value="" style="endArrow=none;html=1;rounded=0;exitX=0.5;exitY=0;exitDx=0;exitDy=0;entryX=0.5;entryY=1;entryDx=0;entryDy=0;" edge="1" parent="1" source="7x0zJqu1SEORnUCvoNw2-60" target="7x0zJqu1SEORnUCvoNw2-55">
          <mxGeometry width="50" height="50" relative="1" as="geometry">
            <mxPoint x="400" y="580" as="sourcePoint" />
            <mxPoint x="450" y="530" as="targetPoint" />
          </mxGeometry>
        </mxCell>
        <mxCell id="7x0zJqu1SEORnUCvoNw2-64" value="" style="endArrow=none;html=1;rounded=0;exitX=0.5;exitY=1;exitDx=0;exitDy=0;entryX=0.5;entryY=0;entryDx=0;entryDy=0;" edge="1" parent="1" source="7x0zJqu1SEORnUCvoNw2-55" target="7x0zJqu1SEORnUCvoNw2-59">
          <mxGeometry width="50" height="50" relative="1" as="geometry">
            <mxPoint x="400" y="580" as="sourcePoint" />
            <mxPoint x="450" y="530" as="targetPoint" />
          </mxGeometry>
        </mxCell>
        <mxCell id="7x0zJqu1SEORnUCvoNw2-65" value="Назва" style="ellipse;whiteSpace=wrap;html=1;" vertex="1" parent="1">
          <mxGeometry x="580" y="640" width="90" height="60" as="geometry" />
        </mxCell>
        <mxCell id="7x0zJqu1SEORnUCvoNw2-66" value="ID" style="ellipse;whiteSpace=wrap;html=1;" vertex="1" parent="1">
          <mxGeometry x="700" y="560" width="90" height="60" as="geometry" />
        </mxCell>
        <mxCell id="7x0zJqu1SEORnUCvoNw2-67" value="" style="endArrow=none;html=1;rounded=0;exitX=0.5;exitY=0;exitDx=0;exitDy=0;entryX=0.47;entryY=1.003;entryDx=0;entryDy=0;entryPerimeter=0;" edge="1" parent="1" source="7x0zJqu1SEORnUCvoNw2-65" target="7x0zJqu1SEORnUCvoNw2-40">
          <mxGeometry width="50" height="50" relative="1" as="geometry">
            <mxPoint x="580" y="580" as="sourcePoint" />
            <mxPoint x="630" y="530" as="targetPoint" />
          </mxGeometry>
        </mxCell>
        <mxCell id="7x0zJqu1SEORnUCvoNw2-68" value="" style="endArrow=none;html=1;rounded=0;entryX=0;entryY=0.5;entryDx=0;entryDy=0;exitX=1;exitY=0.5;exitDx=0;exitDy=0;" edge="1" parent="1" source="7x0zJqu1SEORnUCvoNw2-40" target="7x0zJqu1SEORnUCvoNw2-66">
          <mxGeometry width="50" height="50" relative="1" as="geometry">
            <mxPoint x="580" y="580" as="sourcePoint" />
            <mxPoint x="630" y="530" as="targetPoint" />
          </mxGeometry>
        </mxCell>
        <mxCell id="7x0zJqu1SEORnUCvoNw2-69" value="Витрати" style="shape=trapezoid;perimeter=trapezoidPerimeter;whiteSpace=wrap;html=1;fixedSize=1;" vertex="1" parent="1">
          <mxGeometry x="150" y="375" width="120" height="60" as="geometry" />
        </mxCell>
        <mxCell id="7x0zJqu1SEORnUCvoNw2-70" value="Рецепти" style="shape=trapezoid;perimeter=trapezoidPerimeter;whiteSpace=wrap;html=1;fixedSize=1;" vertex="1" parent="1">
          <mxGeometry x="10" y="375" width="120" height="60" as="geometry" />
        </mxCell>
        <mxCell id="7x0zJqu1SEORnUCvoNw2-71" value="" style="endArrow=none;html=1;rounded=0;entryX=0.5;entryY=1;entryDx=0;entryDy=0;exitX=0.5;exitY=0;exitDx=0;exitDy=0;" edge="1" parent="1" source="7x0zJqu1SEORnUCvoNw2-69" target="7x0zJqu1SEORnUCvoNw2-1">
          <mxGeometry width="50" height="50" relative="1" as="geometry">
            <mxPoint x="310" y="400" as="sourcePoint" />
            <mxPoint x="360" y="350" as="targetPoint" />
          </mxGeometry>
        </mxCell>
        <mxCell id="7x0zJqu1SEORnUCvoNw2-73" value="1-----1" style="edgeLabel;html=1;align=center;verticalAlign=middle;resizable=0;points=[];rotation=60;" vertex="1" connectable="0" parent="7x0zJqu1SEORnUCvoNw2-71">
          <mxGeometry x="-0.0022" relative="1" as="geometry">
            <mxPoint as="offset" />
          </mxGeometry>
        </mxCell>
        <mxCell id="7x0zJqu1SEORnUCvoNw2-72" value="" style="endArrow=none;html=1;rounded=0;entryX=0.5;entryY=1;entryDx=0;entryDy=0;exitX=0.5;exitY=0;exitDx=0;exitDy=0;" edge="1" parent="1" source="7x0zJqu1SEORnUCvoNw2-70" target="7x0zJqu1SEORnUCvoNw2-1">
          <mxGeometry width="50" height="50" relative="1" as="geometry">
            <mxPoint x="310" y="400" as="sourcePoint" />
            <mxPoint x="360" y="350" as="targetPoint" />
          </mxGeometry>
        </mxCell>
        <mxCell id="7x0zJqu1SEORnUCvoNw2-74" value="N-----1" style="edgeLabel;html=1;align=center;verticalAlign=middle;resizable=0;points=[];rotation=-30;" vertex="1" connectable="0" parent="7x0zJqu1SEORnUCvoNw2-72">
          <mxGeometry x="-0.0049" y="-1" relative="1" as="geometry">
            <mxPoint as="offset" />
          </mxGeometry>
        </mxCell>
        <mxCell id="7x0zJqu1SEORnUCvoNw2-75" value="Текст рецепту" style="ellipse;whiteSpace=wrap;html=1;" vertex="1" parent="1">
          <mxGeometry x="70" y="450" width="70" height="70" as="geometry" />
        </mxCell>
        <mxCell id="7x0zJqu1SEORnUCvoNw2-76" value="ID" style="ellipse;whiteSpace=wrap;html=1;" vertex="1" parent="1">
          <mxGeometry y="450" width="70" height="70" as="geometry" />
        </mxCell>
        <mxCell id="7x0zJqu1SEORnUCvoNw2-77" value="" style="endArrow=none;html=1;rounded=0;entryX=0.5;entryY=1;entryDx=0;entryDy=0;exitX=0.5;exitY=0;exitDx=0;exitDy=0;" edge="1" parent="1" source="7x0zJqu1SEORnUCvoNw2-75" target="7x0zJqu1SEORnUCvoNw2-70">
          <mxGeometry width="50" height="50" relative="1" as="geometry">
            <mxPoint x="310" y="400" as="sourcePoint" />
            <mxPoint x="360" y="350" as="targetPoint" />
          </mxGeometry>
        </mxCell>
        <mxCell id="7x0zJqu1SEORnUCvoNw2-78" value="" style="endArrow=none;html=1;rounded=0;entryX=0.5;entryY=1;entryDx=0;entryDy=0;exitX=0.5;exitY=0;exitDx=0;exitDy=0;" edge="1" parent="1" source="7x0zJqu1SEORnUCvoNw2-76" target="7x0zJqu1SEORnUCvoNw2-70">
          <mxGeometry width="50" height="50" relative="1" as="geometry">
            <mxPoint x="310" y="400" as="sourcePoint" />
            <mxPoint x="360" y="350" as="targetPoint" />
          </mxGeometry>
        </mxCell>
        <mxCell id="7x0zJqu1SEORnUCvoNw2-79" value="ID" style="ellipse;whiteSpace=wrap;html=1;" vertex="1" parent="1">
          <mxGeometry x="200" y="515" width="70" height="70" as="geometry" />
        </mxCell>
        <mxCell id="7x0zJqu1SEORnUCvoNw2-80" value="К-ть страв" style="ellipse;whiteSpace=wrap;html=1;" vertex="1" parent="1">
          <mxGeometry x="150" y="450" width="70" height="70" as="geometry" />
        </mxCell>
        <mxCell id="7x0zJqu1SEORnUCvoNw2-81" value="Дата" style="ellipse;whiteSpace=wrap;html=1;" vertex="1" parent="1">
          <mxGeometry x="250" y="450" width="70" height="70" as="geometry" />
        </mxCell>
        <mxCell id="7x0zJqu1SEORnUCvoNw2-82" value="" style="endArrow=none;html=1;rounded=0;entryX=0.5;entryY=1;entryDx=0;entryDy=0;exitX=0.5;exitY=0;exitDx=0;exitDy=0;" edge="1" parent="1" source="7x0zJqu1SEORnUCvoNw2-80" target="7x0zJqu1SEORnUCvoNw2-69">
          <mxGeometry width="50" height="50" relative="1" as="geometry">
            <mxPoint x="310" y="480" as="sourcePoint" />
            <mxPoint x="360" y="430" as="targetPoint" />
          </mxGeometry>
        </mxCell>
        <mxCell id="7x0zJqu1SEORnUCvoNw2-83" value="" style="endArrow=none;html=1;rounded=0;entryX=0.5;entryY=1;entryDx=0;entryDy=0;exitX=0.5;exitY=0;exitDx=0;exitDy=0;" edge="1" parent="1" source="7x0zJqu1SEORnUCvoNw2-79" target="7x0zJqu1SEORnUCvoNw2-69">
          <mxGeometry width="50" height="50" relative="1" as="geometry">
            <mxPoint x="310" y="480" as="sourcePoint" />
            <mxPoint x="360" y="430" as="targetPoint" />
          </mxGeometry>
        </mxCell>
        <mxCell id="7x0zJqu1SEORnUCvoNw2-84" value="" style="endArrow=none;html=1;rounded=0;entryX=0.5;entryY=1;entryDx=0;entryDy=0;exitX=0.5;exitY=0;exitDx=0;exitDy=0;" edge="1" parent="1" source="7x0zJqu1SEORnUCvoNw2-81" target="7x0zJqu1SEORnUCvoNw2-69">
          <mxGeometry width="50" height="50" relative="1" as="geometry">
            <mxPoint x="310" y="480" as="sourcePoint" />
            <mxPoint x="360" y="430" as="targetPoint" />
          </mxGeometry>
        </mxCell>
      </root>
    </mxGraphModel>
  </diagram>
</mxfile>
